<svg id="Layer_8" data-name="Layer 8" xmlns="http://www.w3.org/2000/svg" viewBox="0 0 540 396"><defs><style>.cls-1{fill:#3d3e3e;}.cls-2{fill:#bf360c;}.cls-3{fill:#fbe9e7;}</style></defs><polygon class="cls-1" points="108 72 108 36 90 36 72 36 72 72 90 72 108 72"/><polygon class="cls-1" points="450 36 432 36 432 72 450 72 468 72 468 36 450 36"/><polygon class="cls-1" points="486 72 468 72 468 108 468 144 450 144 432 144 414 144 396 144 378 144 360 144 360 108 342 108 324 108 306 108 288 108 270 108 252 108 234 108 216 108 198 108 180 108 180 144 162 144 144 144 126 144 108 144 90 144 72 144 72 108 72 72 54 72 36 72 36 108 36 144 36 180 54 180 72 180 90 180 108 180 126 180 144 180 144 216 162 216 180 216 180 180 198 180 216 180 234 180 252 180 252 216 234 216 216 216 198 216 180 216 180 252 198 252 216 252 216 288 216 324 216 360 234 360 252 360 270 360 288 360 306 360 324 360 324 324 324 288 324 252 342 252 360 252 360 216 342 216 324 216 306 216 288 216 288 180 306 180 324 180 342 180 360 180 360 216 378 216 396 216 396 180 414 180 432 180 450 180 468 180 486 180 504 180 504 144 504 108 504 72 486 72"/><polygon class="cls-2" points="252 216 252 180 216 180 180 180 180 216 216 216 252 216"/><polygon class="cls-2" points="360 216 360 180 324 180 288 180 288 216 324 216 360 216"/><path class="cls-3" d="M693,189V153H585v72H333V153H225v36H189V369H297v36h36v36h36V549H549V441h36V405h36V369H729V189Zm0,72v72H585v36H549v36H513V513H405V405H369V369H333V333H225V225h36V189h36v36H261v72H369V261H549v36H657V225H621V189h36v36h36Z" transform="translate(-189 -153)"/></svg>